<svg fill="#6366f1" role="img" viewBox="0 0 24 24" xmlns="http://www.w3.org/2000/svg"><title>DeepSeek</title><path d="M12.003 0C9.194 0 6.878 1.793 5.556 3.408c-.637.778-1.093 1.515-1.386 2.02-.146.253-.256.456-.33.598a4.063 4.063 0 0 0-.1.194l-.029.06-.007.018-.003.005v.002l.898.436-.898-.438-.002.003-.003.006-.01.018-.033.063c-.028.055-.066.13-.113.224a9.772 9.772 0 0 0-.347.773c-.27.668-.593 1.6-.758 2.69-.332 2.196-.088 5.023 1.648 7.564l.002.002a7.61 7.61 0 0 0 2.516 2.243c1.02.616 2.218 1.018 3.52 1.099l.028.001c.54.03 1.087.025 1.635-.02a11.43 11.43 0 0 0 2.26-.394 12.634 12.634 0 0 0 4.293-2.12c1.278-.969 2.4-2.225 3.12-3.766.714-1.528.995-3.28.793-5.157-.1-.934-.305-1.83-.612-2.668a9.54 9.54 0 0 0-1.24-2.302 8.548 8.548 0 0 0-1.871-1.861C16.882 1.096 14.56 0 12.003 0zm4.253 5.835c.927.708 1.641 1.596 2.09 2.554.456.975.66 2.036.563 3.107-.102.12-.2.235-.298.345a5.45 5.45 0 0 1-2.036 1.508 5.88 5.88 0 0 1-1.262.423c-.058-.34-.14-.704-.252-1.085-.224-.758-.566-1.593-1.101-2.363-.534-.77-1.271-1.49-2.262-2.007a5.494 5.494 0 0 0-2.058-.64 5.696 5.696 0 0 0-1.093-.008c.244-.314.538-.646.889-.98.893-.852 2.096-1.709 3.56-2.178 1.13-.363 2.286-.345 3.26.024v-.001c0 .444.002.891 0 1.301zm-9.053 3.77c.35-.029.737.003 1.148.106a3.56 3.56 0 0 1 1.368.66c.701.52 1.246 1.184 1.645 1.894.398.71.635 1.46.795 2.137.16.676.228 1.288.252 1.739a6.6 6.6 0 0 1 .007.512 6.61 6.61 0 0 1-.91.218c-.727.127-1.564.161-2.385.05-.821-.11-1.619-.364-2.282-.759a5.637 5.637 0 0 1-1.775-1.6c-1.318-1.932-1.51-4.198-1.233-6.03.133-.875.38-1.654.624-2.255a7.6 7.6 0 0 1 .188-.409c-.045.502-.02 1.06.09 1.638.144.75.45 1.533.953 2.197.314.415.709.78 1.175 1.054.34.2.72.35 1.134.436-.2-.44-.38-.935-.516-1.455a7.38 7.38 0 0 1-.278-1.133z"/></svg>